<?xml version="1.0" encoding="utf-8"?>
<!-- Generator: Adobe Illustrator 24.0.0, SVG Export Plug-In . SVG Version: 6.00 Build 0)  -->
<svg version="1.1" id="Camada_1" xmlns="http://www.w3.org/2000/svg" xmlns:xlink="http://www.w3.org/1999/xlink" x="0px" y="0px"
	 viewBox="0 0 1043.4 1041.4" style="enable-background:new 0 0 1043.4 1041.4;" xml:space="preserve">
<style type="text/css">
	.st0{fill:#F200B3;}
</style>
<title>Prancheta 3</title>
<path class="st0" d="M427.6,361.8c-16.1-6.7-33.5-9.4-51.3-8.9c-11.3,0-21.3,0-29.5,0.5c-5.9-0.4-11.9-0.3-17.8,0.4v149.8
	c6.1,0.4,11.7,0.9,17,0.9h23c17,0,33.9-2.7,50-8c13.9-4,26.1-12.5,35.6-23.6c9.1-11.1,13.5-26.3,13.5-45.9c0.4-13.9-3-27.6-10-39.7
	C450.9,375.7,440.2,366.8,427.6,361.8z M857.9-0.2H184.3C82.2-0.2-0.4,84.6-0.4,189.3v664.1c0,104.8,82.6,189.4,184.7,189.4h673.6
	c102.1,0,184.7-84.7,184.7-189.4V189.3C1042.6,84.6,960-0.2,857.9-0.2z M536.7,519.1c-17.3,24.8-41.6,43.8-69.9,54.4
	c-29.5,11.1-62.1,15.2-97.8,15.2c-10.4,0-17.4,0-21.7-0.4s-10.4-0.5-18.7-0.5v143c0.4,3-1.7,5.9-4.7,6.3c0,0,0,0,0,0h-84.3
	c-3.5,0-5.2-1.8-5.2-5.8V272.6c0-3.1,1.3-4.9,4.4-4.9c7.4,0,14.3,0,24.3-0.5c10.4-0.4,21.3-0.4,33-0.9s24.3-0.5,37.8-0.9
	s26.5-0.5,39.5-0.5c35.6,0,65.2,4.5,89.5,13.8c21.9,7.7,41.8,20.2,58.2,36.5c14.1,14.5,24.9,31.8,31.7,50.8
	c6.6,18.6,9.9,38.2,10,57.9C562.8,462.5,554.1,494.2,536.7,519.1L536.7,519.1z M844.8,692.5c-12,17.7-28.9,31.5-48.7,39.7
	c-21.3,9.3-47.4,14.2-78.7,14.2c-19.8,0.1-39.6-1.8-59.1-5.8c-15.3-2.7-30.3-7.5-44.3-14.3c-3-1.7-5.3-4.9-4.8-8.4v-77.6
	c-0.1-1.5,0.6-3,1.8-4c1.3-0.9,2.6-0.4,3.9,0.5c16.7,10.1,34.9,17.5,53.9,21.8c16.7,4.5,34,6.7,51.3,6.7c16.5,0,28.2-2.3,36.1-6.3
	c7-3.1,11.7-10.7,11.7-18.7c0-6.3-3.5-12-10.4-17.8s-21.3-12.4-42.5-21c-21.9-7.9-42.6-18.7-61.7-32c-13.7-10.1-24.9-23-33.1-37.9
	c-6.9-14.2-10.3-29.8-10-45.5c0-19,5.1-37.6,14.8-53.9c10.9-17.8,26.7-32,45.6-41c20.4-10.6,46-15.5,76.9-15.5c18,0,36.1,1.3,53.9,4
	c12.9,1.8,25.4,5.2,37.4,10.3c1.9,0.7,3.5,2.2,4.3,4c0.5,1.7,0.8,3.5,0.9,5.4v72.7c0,1.7-0.8,3.4-2.2,4.5c-3.9,0.9-6.1,0.9-7.8,0
	c-13.1-7.1-27.1-12.2-41.7-15.1c-16-3.7-32.3-5.7-48.7-5.8c-8.8-0.3-17.6,0.8-26.1,3.1c-5.4,1.2-10.2,4.4-13.4,8.9
	c-2.2,3.6-3.4,7.8-3.5,12c0,4,1.7,8,4.4,11.6c4.1,4.9,9.1,9,14.8,12c10,5.4,20.4,10.3,30.8,14.7c23.6,8.1,46.1,19,67,32.5
	c14.4,9.3,26.1,22,34.3,37c7,14.2,10.4,30,10,45.9C862.2,654.2,856.3,674.8,844.8,692.5L844.8,692.5z"/>
</svg>
